<?xml version="1.0" encoding="utf-8"?>
<svg version="1.1" id="Layer_1" xmlns="http://www.w3.org/2000/svg" x="0px" y="0px" width="100%" viewBox="0 0 1024 1024" enable-background="new 0 0 1024 1024">
  <path opacity="1.000000" stroke="none" d=" M674.000000,1025.000000 C449.333344,1025.000000 225.166672,1025.000000 1.000000,1025.000000 C1.000000,683.666687 1.000000,342.333344 1.000000,1.000000 C342.333344,1.000000 683.666687,1.000000 1025.000000,1.000000 C1025.000000,342.333344 1025.000000,683.666687 1025.000000,1025.000000 C908.166687,1025.000000 791.333313,1025.000000 674.000000,1025.000000 M425.995972,631.003906 C425.995972,631.003906 426.071625,631.074036 426.002350,630.129700 C426.002350,622.856750 426.002350,615.583801 426.002350,607.918213 C417.450745,607.918213 409.371033,607.918213 400.903870,607.918213 C400.903870,599.778931 400.903870,592.032898 400.903870,584.000671 C393.704437,584.000671 386.902527,583.945862 380.102081,584.023254 C376.557739,584.063599 374.731842,583.026306 374.908691,578.932800 C375.221710,571.685852 374.996429,564.415710 374.996429,556.770630 C365.961639,556.770630 357.548798,556.770630 348.754578,556.770630 C348.754578,539.961975 348.754578,523.552917 348.754578,506.753357 C340.278656,506.753357 332.198914,506.753357 323.739166,506.753357 C323.739166,498.276306 323.739166,490.195984 323.739166,482.338562 C315.261230,482.338562 307.186432,482.338562 299.343445,482.338562 C299.343445,515.748047 299.343445,548.819458 299.343445,582.286560 C307.430145,582.286560 315.176971,582.286560 323.301147,582.286560 C323.301147,591.096924 323.301147,599.510437 323.301147,608.303589 C340.774658,608.303589 357.850067,608.303589 374.652008,608.303589 C374.652008,633.444092 374.652008,658.183411 374.652008,683.318604 C349.226990,683.318604 324.152710,683.318604 298.683655,683.318604 C298.683655,691.796936 298.683655,699.874817 298.683655,708.330383 C273.208038,708.330383 248.133881,708.330383 222.670746,708.330383 C222.670746,716.806580 222.670746,724.886292 222.670746,733.167053 C205.986374,733.167053 189.698135,733.167053 173.011566,733.167053 C173.011566,741.457703 173.011566,749.538086 173.011566,758.006592 C164.876129,758.006592 157.128860,758.006592 148.993118,758.006592 C148.993118,766.475342 148.993118,774.554504 148.993118,783.011963 C140.857101,783.011963 133.110641,783.011963 125.210304,783.011963 C125.210304,834.141113 125.210304,884.880493 125.210304,935.791321 C383.484558,935.791321 641.550171,935.791321 899.787842,935.791321 C899.787842,901.511169 899.787842,867.439453 899.787842,832.971558 C891.508911,832.971558 883.429016,832.971558 874.963989,832.971558 C874.963989,816.171997 874.963989,799.763306 874.963989,782.961426 C866.496155,782.961426 858.415588,782.961426 849.948425,782.961426 C849.948425,774.493225 849.948425,766.414551 849.948425,757.946960 C841.811584,757.946960 834.064453,757.946960 825.932556,757.946960 C825.932556,749.477051 825.932556,741.398499 825.932556,732.929749 C809.462341,732.929749 793.386719,732.929749 776.915894,732.929749 C776.915894,724.458679 776.915894,716.380371 776.915894,707.912781 C751.775757,707.912781 727.035217,707.912781 701.896362,707.912781 C701.896362,699.441223 701.896362,691.362183 701.896362,682.895203 C676.422241,682.895203 651.348572,682.895203 626.254761,682.895203 C626.254761,665.419067 626.254761,648.346741 626.254761,630.875427 C634.249573,630.875427 641.995361,630.875427 650.127319,630.875427 C650.127319,622.736267 650.127319,614.991760 650.127319,606.858643 C667.600098,606.858643 684.675659,606.858643 702.143799,606.858643 C702.143799,598.051697 702.143799,589.639709 702.143799,580.840942 C710.950195,580.840942 719.362671,580.840942 728.159180,580.840942 C728.159180,547.368469 728.159180,514.295410 728.159180,480.826660 C736.632202,480.826660 744.711975,480.826660 753.173462,480.826660 C753.173462,447.354767 753.173462,414.281342 753.173462,380.804810 C761.645264,380.804810 769.724121,380.804810 777.695007,380.804810 C777.695007,331.660461 777.695007,282.924377 777.695007,233.788040 C769.315857,233.788040 761.235901,233.788040 752.774048,233.788040 C752.774048,217.979919 752.774048,202.570877 752.774048,186.780548 C744.627014,186.780548 736.877441,186.780548 728.758240,186.780548 C728.758240,178.313293 728.758240,170.233353 728.758240,161.771790 C720.296509,161.771790 712.216736,161.771790 703.756714,161.771790 C703.756714,153.296265 703.756714,145.216248 703.756714,136.755554 C695.614807,136.755554 687.868713,136.755554 679.739990,136.755554 C679.739990,128.612640 679.739990,120.866776 679.739990,112.738731 C653.265686,112.738731 627.191956,112.738731 600.722412,112.738731 C600.722412,103.594833 600.722412,94.849220 600.722412,86.346832 C542.582092,86.346832 484.844757,86.346832 426.707733,86.346832 C426.707733,95.433556 426.707733,104.178749 426.707733,113.305725 C399.899628,113.305725 373.492554,113.305725 346.698883,113.305725 C346.698883,121.454330 346.698883,129.204666 346.698883,137.322174 C338.227020,137.322174 330.146820,137.322174 321.687012,137.322174 C321.687012,145.788895 321.687012,153.868729 321.687012,162.326691 C313.541168,162.326691 305.794830,162.326691 297.834869,162.326691 C297.834869,170.681168 297.834869,178.636108 297.834869,186.997482 C289.533508,186.997482 281.455231,186.997482 272.988220,186.997482 C272.988220,202.813766 272.988220,218.222961 272.988220,234.026352 C264.853180,234.026352 257.105743,234.026352 249.197327,234.026352 C249.197327,283.162720 249.197327,331.897705 249.197327,381.017883 C257.134613,381.017883 264.888580,381.017883 273.022217,381.017883 C273.022217,414.472992 273.022217,447.545746 273.022217,480.797485 C281.818848,480.797485 290.222290,480.797485 299.006104,480.797485 C299.006104,464.523499 299.006104,448.445282 299.006104,431.980347 C307.123871,431.980347 314.873566,431.980347 323.011505,431.980347 C323.011505,414.851532 323.011505,398.109375 323.011505,380.994995 C340.491943,380.994995 357.576080,380.994995 375.010071,380.994995 C375.010071,372.549927 375.010071,364.473816 375.010071,356.361023 C383.563416,356.361023 391.756653,356.361023 400.163849,356.361023 C400.163849,364.681885 400.163849,372.638062 400.163849,380.793091 C425.479370,380.793091 450.571564,380.793091 475.135895,380.793091 C475.135895,372.897919 475.135895,365.157928 475.135895,357.019714 C458.205658,357.019714 441.796448,357.019714 425.196594,357.019714 C425.196594,348.534363 425.196594,340.462402 425.196594,331.988678 C433.464813,331.988678 441.545410,331.988678 450.054138,331.988678 C450.054138,323.527100 450.054138,315.454956 450.054138,307.698486 C458.558838,307.698486 466.624390,307.698486 475.091736,307.698486 C475.091736,291.104614 475.091736,274.695648 475.091736,257.894592 C483.562347,257.894592 491.641907,257.894592 500.108276,257.894592 C500.108276,249.424362 500.108276,241.346390 500.108276,233.256256 C508.918060,233.256256 517.324219,233.256256 526.122437,233.256256 C526.122437,258.252075 526.122437,282.992249 526.122437,308.123688 C534.259277,308.123688 542.006470,308.123688 550.137939,308.123688 C550.137939,316.592133 550.137939,324.669067 550.137939,332.724304 C558.944092,332.724304 567.349670,332.724304 576.141846,332.724304 C576.141846,324.085144 576.141846,315.712494 576.141846,307.928467 C584.249695,307.928467 591.992371,307.928467 600.114502,307.928467 C600.114502,316.239349 600.114502,323.985748 600.114502,331.753418 C617.562195,331.753418 634.607422,331.753418 651.709839,331.753418 C651.709839,339.640869 651.709839,347.679626 651.709839,356.141113 C668.623413,356.141113 685.703979,356.141113 702.723206,356.141113 C702.723206,406.636963 702.723206,456.708008 702.723206,507.175873 C694.368774,507.175873 686.288757,507.175873 677.825806,507.175873 C677.825806,523.979553 677.825806,540.388733 677.825806,557.188477 C669.352905,557.188477 661.273315,557.188477 652.811279,557.188477 C652.811279,565.995239 652.811279,574.407410 652.811279,583.204346 C644.004150,583.204346 635.591980,583.204346 626.794067,583.204346 C626.794067,591.346008 626.794067,599.092102 626.794067,607.221191 C617.983826,607.221191 609.571045,607.221191 600.775208,607.221191 C600.775208,615.364319 600.775208,623.111145 600.775208,630.928223 C542.224487,630.928223 484.075195,630.928223 425.995972,631.003906 M574.997375,551.399780 C574.997375,545.021545 574.997375,538.643311 574.997375,532.324585 C533.611389,532.324585 491.881195,532.324585 450.328979,532.324585 C450.328979,540.724854 450.328979,548.798584 450.328979,556.846680 C491.939026,556.846680 533.221069,556.846680 574.997192,556.846680 C574.997192,555.260315 574.997192,553.818237 574.997375,551.399780 M576.001709,377.345856 C575.612793,379.944122 576.284546,381.154968 579.353394,381.073944 C587.827087,380.850372 596.310547,380.997345 604.790100,380.997437 C620.397095,380.997589 636.004089,380.997498 650.990234,380.997498 C650.990234,372.833771 650.990234,364.992584 650.990234,357.257751 C625.675232,357.257751 600.979309,357.257751 576.001099,357.257751 C576.001099,363.798828 576.001099,370.087250 576.001709,377.345856 M436.495239,406.002899 C424.401733,406.002899 412.308228,406.002899 400.290344,406.002899 C400.290344,414.649597 400.290344,422.720154 400.290344,430.712891 C417.316071,430.712891 434.050659,430.712891 450.709167,430.712891 C450.709167,422.352783 450.709167,414.281891 450.709167,406.002747 C446.112244,406.002747 441.802124,406.002747 436.495239,406.002899 M625.993530,429.289093 C625.993530,421.542816 625.993530,413.796570 625.993530,406.367706 C608.865540,406.367706 592.461121,406.367706 576.193909,406.367706 C576.193909,414.688019 576.193909,422.641388 576.193909,430.941284 C592.665710,430.941284 608.947083,430.944275 625.228394,430.912781 C625.467102,430.912323 625.705017,430.483429 625.993530,429.289093 z" style="fill: none;"/>
  <path opacity="1.000000" stroke="none" d=" M425.925903,630.928223 C484.075195,630.928223 542.224487,630.928223 600.775208,630.928223 C600.775208,623.111145 600.775208,615.364319 600.775208,607.221191 C609.571045,607.221191 617.983826,607.221191 626.794067,607.221191 C626.794067,599.092102 626.794067,591.346008 626.794067,583.204346 C635.591980,583.204346 644.004150,583.204346 652.811279,583.204346 C652.811279,574.407410 652.811279,565.995239 652.811279,557.188477 C661.273315,557.188477 669.352905,557.188477 677.825806,557.188477 C677.825806,540.388733 677.825806,523.979553 677.825806,507.175873 C686.288757,507.175873 694.368774,507.175873 702.723206,507.175873 C702.723206,456.708008 702.723206,406.636963 702.723206,356.141113 C685.703979,356.141113 668.623413,356.141113 651.709839,356.141113 C651.709839,347.679626 651.709839,339.640869 651.709839,331.753418 C634.607422,331.753418 617.562195,331.753418 600.114502,331.753418 C600.114502,323.985748 600.114502,316.239349 600.114502,307.928467 C591.992371,307.928467 584.249695,307.928467 576.141846,307.928467 C576.141846,315.712494 576.141846,324.085144 576.141846,332.724304 C567.349670,332.724304 558.944092,332.724304 550.137939,332.724304 C550.137939,324.669067 550.137939,316.592133 550.137939,308.123688 C542.006470,308.123688 534.259277,308.123688 526.122437,308.123688 C526.122437,282.992249 526.122437,258.252075 526.122437,233.256256 C517.324219,233.256256 508.918060,233.256256 500.108276,233.256256 C500.108276,241.346390 500.108276,249.424362 500.108276,257.894592 C491.641907,257.894592 483.562347,257.894592 475.091736,257.894592 C475.091736,274.695648 475.091736,291.104614 475.091736,307.698486 C466.624390,307.698486 458.558838,307.698486 450.054138,307.698486 C450.054138,315.454956 450.054138,323.527100 450.054138,331.988678 C441.545410,331.988678 433.464813,331.988678 425.196594,331.988678 C425.196594,340.462402 425.196594,348.534363 425.196594,357.019714 C441.796448,357.019714 458.205658,357.019714 475.135895,357.019714 C475.135895,365.157928 475.135895,372.897919 475.135895,380.793091 C450.571564,380.793091 425.479370,380.793091 400.163849,380.793091 C400.163849,372.638062 400.163849,364.681885 400.163849,356.361023 C391.756653,356.361023 383.563416,356.361023 375.010071,356.361023 C375.010071,364.473816 375.010071,372.549927 375.010071,380.994995 C357.576080,380.994995 340.491943,380.994995 323.011505,380.994995 C323.011505,398.109375 323.011505,414.851532 323.011505,431.980347 C314.873566,431.980347 307.123871,431.980347 299.006104,431.980347 C299.006104,448.445282 299.006104,464.523499 299.006104,480.797485 C290.222290,480.797485 281.818848,480.797485 273.022217,480.797485 C273.022217,447.545746 273.022217,414.472992 273.022217,381.017883 C264.888580,381.017883 257.134613,381.017883 249.197327,381.017883 C249.197327,331.897705 249.197327,283.162720 249.197327,234.026352 C257.105743,234.026352 264.853180,234.026352 272.988220,234.026352 C272.988220,218.222961 272.988220,202.813766 272.988220,186.997482 C281.455231,186.997482 289.533508,186.997482 297.834869,186.997482 C297.834869,178.636108 297.834869,170.681168 297.834869,162.326691 C305.794830,162.326691 313.541168,162.326691 321.687012,162.326691 C321.687012,153.868729 321.687012,145.788895 321.687012,137.322174 C330.146820,137.322174 338.227020,137.322174 346.698883,137.322174 C346.698883,129.204666 346.698883,121.454330 346.698883,113.305725 C373.492554,113.305725 399.899628,113.305725 426.707733,113.305725 C426.707733,104.178749 426.707733,95.433556 426.707733,86.346832 C484.844757,86.346832 542.582092,86.346832 600.722412,86.346832 C600.722412,94.849220 600.722412,103.594833 600.722412,112.738731 C627.191956,112.738731 653.265686,112.738731 679.739990,112.738731 C679.739990,120.866776 679.739990,128.612640 679.739990,136.755554 C687.868713,136.755554 695.614807,136.755554 703.756714,136.755554 C703.756714,145.216248 703.756714,153.296265 703.756714,161.771790 C712.216736,161.771790 720.296509,161.771790 728.758240,161.771790 C728.758240,170.233353 728.758240,178.313293 728.758240,186.780548 C736.877441,186.780548 744.627014,186.780548 752.774048,186.780548 C752.774048,202.570877 752.774048,217.979919 752.774048,233.788040 C761.235901,233.788040 769.315857,233.788040 777.695007,233.788040 C777.695007,282.924377 777.695007,331.660461 777.695007,380.804810 C769.724121,380.804810 761.645264,380.804810 753.173462,380.804810 C753.173462,414.281342 753.173462,447.354767 753.173462,480.826660 C744.711975,480.826660 736.632202,480.826660 728.159180,480.826660 C728.159180,514.295410 728.159180,547.368469 728.159180,580.840942 C719.362671,580.840942 710.950195,580.840942 702.143799,580.840942 C702.143799,589.639709 702.143799,598.051697 702.143799,606.858643 C684.675659,606.858643 667.600098,606.858643 650.127319,606.858643 C650.127319,614.991760 650.127319,622.736267 650.127319,630.875427 C641.995361,630.875427 634.249573,630.875427 626.254761,630.875427 C626.254761,648.346741 626.254761,665.419067 626.254761,682.895203 C651.348572,682.895203 676.422241,682.895203 701.896362,682.895203 C701.896362,691.362183 701.896362,699.441223 701.896362,707.912781 C727.035217,707.912781 751.775757,707.912781 776.915894,707.912781 C776.915894,716.380371 776.915894,724.458679 776.915894,732.929749 C793.386719,732.929749 809.462341,732.929749 825.932556,732.929749 C825.932556,741.398499 825.932556,749.477051 825.932556,757.946960 C834.064453,757.946960 841.811584,757.946960 849.948425,757.946960 C849.948425,766.414551 849.948425,774.493225 849.948425,782.961426 C858.415588,782.961426 866.496155,782.961426 874.963989,782.961426 C874.963989,799.763306 874.963989,816.171997 874.963989,832.971558 C883.429016,832.971558 891.508911,832.971558 899.787842,832.971558 C899.787842,867.439453 899.787842,901.511169 899.787842,935.791321 C641.550171,935.791321 383.484558,935.791321 125.210304,935.791321 C125.210304,884.880493 125.210304,834.141113 125.210304,783.011963 C133.110641,783.011963 140.857101,783.011963 148.993118,783.011963 C148.993118,774.554504 148.993118,766.475342 148.993118,758.006592 C157.128860,758.006592 164.876129,758.006592 173.011566,758.006592 C173.011566,749.538086 173.011566,741.457703 173.011566,733.167053 C189.698135,733.167053 205.986374,733.167053 222.670746,733.167053 C222.670746,724.886292 222.670746,716.806580 222.670746,708.330383 C248.133881,708.330383 273.208038,708.330383 298.683655,708.330383 C298.683655,699.874817 298.683655,691.796936 298.683655,683.318604 C324.152710,683.318604 349.226990,683.318604 374.652008,683.318604 C374.652008,658.183411 374.652008,633.444092 374.652008,608.303589 C357.850067,608.303589 340.774658,608.303589 323.301147,608.303589 C323.301147,599.510437 323.301147,591.096924 323.301147,582.286560 C315.176971,582.286560 307.430145,582.286560 299.343445,582.286560 C299.343445,548.819458 299.343445,515.748047 299.343445,482.338562 C307.186432,482.338562 315.261230,482.338562 323.739166,482.338562 C323.739166,490.195984 323.739166,498.276306 323.739166,506.753357 C332.198914,506.753357 340.278656,506.753357 348.754578,506.753357 C348.754578,523.552917 348.754578,539.961975 348.754578,556.770630 C357.548798,556.770630 365.961639,556.770630 374.996429,556.770630 C374.996429,564.415710 375.221710,571.685852 374.908691,578.932800 C374.731842,583.026306 376.557739,584.063599 380.102081,584.023254 C386.902527,583.945862 393.704437,584.000671 400.903870,584.000671 C400.903870,592.032898 400.903870,599.778931 400.903870,607.918213 C409.371033,607.918213 417.450745,607.918213 426.002350,607.918213 C426.002350,615.583801 426.002350,622.856750 425.564758,630.572021 C418.131866,631.008484 411.121460,631.278320 404.146667,630.896790 C399.712128,630.654175 398.884491,632.406494 398.943909,636.375793 C399.148315,650.030579 399.021057,663.690369 399.020569,677.348206 C399.020203,687.455627 399.020508,697.563049 399.020508,708.062378 C407.855499,708.062378 416.264069,708.062378 425.055511,708.062378 C425.055511,716.526123 425.055511,724.602356 425.055511,732.638550 C483.617523,732.638550 541.782166,732.638550 599.653687,732.638550 C599.653687,707.209656 599.653687,682.146667 599.653687,656.727905 C541.590637,656.727905 483.877655,656.727905 425.925903,656.727905 C425.925903,647.887390 425.925903,639.407837 425.925903,630.928223 z" style=""/>
  <path opacity="1.000000" stroke="none" d=" M574.997314,551.887939 C574.997192,553.818237 574.997192,555.260315 574.997192,556.846680 C533.221069,556.846680 491.939026,556.846680 450.328979,556.846680 C450.328979,548.798584 450.328979,540.724854 450.328979,532.324585 C491.881195,532.324585 533.611389,532.324585 574.997375,532.324585 C574.997375,538.643311 574.997375,545.021545 574.997314,551.887939 z" style=""/>
  <path opacity="1.000000" stroke="none" d=" M576.001404,376.860779 C576.001099,370.087250 576.001099,363.798828 576.001099,357.257751 C600.979309,357.257751 625.675232,357.257751 650.990234,357.257751 C650.990234,364.992584 650.990234,372.833771 650.990234,380.997498 C636.004089,380.997498 620.397095,380.997589 604.790100,380.997437 C596.310547,380.997345 587.827087,380.850372 579.353394,381.073944 C576.284546,381.154968 575.612793,379.944122 576.001404,376.860779 z" style=""/>
  <path opacity="1.000000" stroke="none" d=" M436.993652,406.002808 C441.802124,406.002747 446.112244,406.002747 450.709167,406.002747 C450.709167,414.281891 450.709167,422.352783 450.709167,430.712891 C434.050659,430.712891 417.316071,430.712891 400.290344,430.712891 C400.290344,422.720154 400.290344,414.649597 400.290344,406.002899 C412.308228,406.002899 424.401733,406.002899 436.993652,406.002808 z" style=""/>
  <path opacity="1.000000" stroke="none" d=" M625.968384,429.771790 C625.705017,430.483429 625.467102,430.912323 625.228394,430.912781 C608.947083,430.944275 592.665710,430.941284 576.193909,430.941284 C576.193909,422.641388 576.193909,414.688019 576.193909,406.367706 C592.461121,406.367706 608.865540,406.367706 625.993530,406.367706 C625.993530,413.796570 625.993530,421.542816 625.968384,429.771790 z" style=""/>
  <path opacity="1.000000" stroke="none" d=" M425.960938,630.966064 C425.925903,639.407837 425.925903,647.887390 425.925903,656.727905 C483.877655,656.727905 541.590637,656.727905 599.653687,656.727905 C599.653687,682.146667 599.653687,707.209656 599.653687,732.638550 C541.782166,732.638550 483.617523,732.638550 425.055511,732.638550 C425.055511,724.602356 425.055511,716.526123 425.055511,708.062378 C416.264069,708.062378 407.855499,708.062378 399.020508,708.062378 C399.020508,697.563049 399.020203,687.455627 399.020569,677.348206 C399.021057,663.690369 399.148315,650.030579 398.943909,636.375793 C398.884491,632.406494 399.712128,630.654175 404.146667,630.896790 C411.121460,631.278320 418.131866,631.008484 425.599426,631.044189 C426.071625,631.074036 425.995972,631.003906 425.960938,630.966064 z" style="fill: none;"/>
</svg>